<svg version="1.1" xmlns="http://www.w3.org/2000/svg" xmlns:xlink="http://www.w3.org/1999/xlink" width="46.5" height="46.5" viewBox="0,0,46.5,46.5"><g transform="translate(-216.75,-156.75)"><g data-paper-data="{&quot;isPaintingLayer&quot;:true}" fill-rule="nonzero" stroke="#000000" stroke-linejoin="miter" stroke-miterlimit="10" stroke-dasharray="" stroke-dashoffset="0" style="mix-blend-mode: normal"><path d="M216.75,203.25v-46.5h46.5v46.5z" fill="#14ff00" stroke-width="0" stroke-linecap="butt"/><path d="M220.40278,165.42593l4.77778,-5.55556l3.22222,5l3.88889,-4.66667l3.33333,4.77778" fill="none" stroke-width="0.5" stroke-linecap="round"/><path d="M245.06944,171.42593l5.55556,-5l2.22222,4.55556l3.66667,-4.55556l2.88889,4.55556" fill="none" stroke-width="0.5" stroke-linecap="round"/><path d="M220.51389,177.2037l4.77778,-4.66667l2.11111,3.77778l3.44444,-3.88889l3.11111,4.77778" fill="none" stroke-width="0.5" stroke-linecap="round"/><path d="M245.06944,182.42593l4.33333,-5.11111l3.33333,4.88889l4.11111,-5.22222l3.33333,5.22222" fill="none" stroke-width="0.5" stroke-linecap="round"/><path d="M234.625,186.2037l-3.22222,-4.66667l-3.22222,4.11111l-3.22222,-4.11111l-4.88889,5.11111" fill="none" stroke-width="0.5" stroke-linecap="round"/><path d="M244.84722,191.87037l4.88889,-4.22222l3.44444,3.66667l3.66667,-3.66667l3.77778,4.22222" fill="none" stroke-width="0.5" stroke-linecap="round"/><path d="M221.06944,194.75926l5.22222,-5.44444l3.44444,3.55556l4.88889,-3.88889l2.33333,3.33333" fill="none" stroke-width="0.5" stroke-linecap="round"/></g></g></svg>